<?xml version="1.0" encoding="utf-8"?>
<!-- Svg Vector Icons : http://www.onlinewebfonts.com/icon -->
<!DOCTYPE svg PUBLIC "-//W3C//DTD SVG 1.1//EN" "http://www.w3.org/Graphics/SVG/1.1/DTD/svg11.dtd">
<svg version="1.1" xmlns="http://www.w3.org/2000/svg" xmlns:xlink="http://www.w3.org/1999/xlink" x="0px" y="0px" viewBox="0 0 1000 1000" enable-background="new 0 0 1000 1000" xml:space="preserve">
<metadata> Svg Vector Icons : http://www.onlinewebfonts.com/icon </metadata>
<g><path d="M49,311.9l-0.2,0.3l436.5,252c4.4,2.5,9.3,3.9,14.4,3.9c5.2,0,10.3-1.4,14.7-4L947.4,314c13.7-7.9,18.4-25.6,10.5-39.3c-2.6-4.5-6.3-8.1-10.7-10.6L515.7,13.9c-4.4-2.5-9.3-3.9-14.4-3.9c-5.7,0-11.1,1.6-15.9,4.8L52.6,264.6c-13.7,7.9-18.5,25.4-10.6,39.2C43.8,306.9,46.2,309.6,49,311.9z M501.2,71.9l374.5,217.1l-376,217.1L124.3,289.5L501.2,71.9z"/><path d="M947.2,475L865.9,428l-57.4,33.1l67.1,38.9l-376,217.1L124.3,500.4l67.3-38.8l-57.4-33.1l-81.6,47.1c-13.7,7.9-18.5,25.4-10.6,39.2c1.8,3.2,4.2,5.9,7,8.2l-0.2,0.3l436.3,251.9c4.4,2.5,9.3,3.9,14.4,3.9c5.2,0,10.3-1.4,14.7-4l433.1-250.1c13.7-7.9,18.4-25.6,10.5-39.3C955.3,481.2,951.6,477.5,947.2,475z"/><path d="M947.2,686l-80.9-46.9l-57.4,33.1l66.8,38.7l-376,217.1L124.3,711.4l66.9-38.6l-57.4-33.1l-81.3,46.9c-13.7,7.9-18.5,25.4-10.6,39.2c1.8,3.1,4.2,5.9,7,8.1l-0.2,0.3l436.4,252c4.4,2.5,9.3,3.9,14.4,3.9c5.2,0,10.3-1.4,14.7-4l433.1-250.1c13.7-7.9,18.4-25.6,10.5-39.3C955.3,692.2,951.6,688.5,947.2,686z"/></g>
</svg>